<svg width="150" height="100" viewBox="0 0 150 100" fill="none" xmlns="http://www.w3.org/2000/svg">
<path d="M75 99.8281C47.4844 99.8281 25.1719 77.5156 25.1719 50C25.1719 22.4844 47.4844 0.171875 75 0.171875C102.516 0.171875 124.828 22.4844 124.828 50C124.828 77.5156 102.516 99.8281 75 99.8281Z" fill="#FFB81C"/>
<path d="M74.9688 96.953C49.0469 96.953 28.0312 75.9373 28.0312 50.0155C28.0312 24.0936 49.0469 3.07797 74.9688 3.07797C100.891 3.07797 121.906 24.0936 121.906 50.0155C121.906 75.9373 100.891 96.953 74.9688 96.953Z" fill="#003087"/>
<path d="M92.5936 11.5469C96.4998 12.8281 99.7029 14.0313 99.5623 14.375C99.4217 14.7344 96.1092 13.7969 92.2029 12.5C86.3123 10.5625 79.0623 7.85938 79.1561 7.67188C79.2186 7.48438 86.7029 9.60938 92.5936 11.5469ZM95.5467 44.2811C95.7186 44.5155 87.7498 47.7655 81.1873 50.1092C76.8279 51.6561 73.0936 52.7967 72.7811 52.3749C72.4686 51.953 75.9998 50.5155 80.3592 48.9686C86.9061 46.6249 95.3748 44.0467 95.5467 44.2811ZM42.9529 31.3592C42.5623 30.6092 42.1404 28.703 42.1404 26.7342C42.1404 21.2186 45.8592 19.3905 51.3123 18.328C52.2342 18.1561 52.3748 18.0467 52.9998 17.1249C57.1404 11.1092 62.3436 8.10923 68.1248 8.10923C71.7029 8.10923 74.0311 8.93735 84.9529 12.8124C87.9061 13.8592 91.4373 15.1561 95.8123 16.7186C97.9061 17.4686 100.203 18.2655 102.719 19.1405C106.14 20.328 107.219 20.8749 107.219 21.4999C107.219 22.2342 105.906 22.3905 105.906 22.9842C105.906 23.453 107.672 23.9842 109.312 24.1405C107.75 25.3905 102.828 24.6405 102.828 23.4374C102.828 22.7967 103.828 22.4686 103.828 21.9686C103.828 21.2186 100.797 19.7186 97.6248 19.3905C98.8748 23.5936 97.7967 25.1874 97.7967 26.1249C97.7967 27.0155 99.1873 27.4686 100.937 27.1092C101.812 28.1249 103.187 29.0155 104.265 29.3905C104.094 29.6717 104 30.203 104.109 30.5155C104.562 30.3436 105.25 30.1874 105.719 30.1874C106.656 31.2342 107.078 33.328 106.89 34.6405C105.797 34.2655 104.39 34.0624 103.469 34.0311C102.515 32.6092 100.969 31.2811 99.4061 30.4686C96.6873 30.078 92.4686 30.8592 90.0623 31.7499C91.3279 31.9374 93.8123 31.8749 95.0154 31.7186C95.5623 32.1874 96.6248 32.7499 97.2654 33.0467C97.0779 33.3749 97.0779 33.8592 97.1873 34.1405C97.6717 33.8592 98.2498 33.6405 98.7186 33.578C99.7498 34.3592 100.656 36.1405 100.859 37.6561C99.8592 37.4686 98.6092 37.4061 97.7498 37.453C96.1092 35.8592 93.5623 34.328 91.7342 34.328C89.7498 34.328 87.9217 35.3436 86.6717 35.3436C84.7498 35.3436 82.8279 33.2186 79.7967 33.2186C78.9529 33.2186 78.1404 33.3749 77.3123 33.6717C77.4842 35.4061 78.4998 37.2967 79.1717 38.2186C78.6248 38.2811 77.7654 38.2655 77.2342 38.2186C77.7029 38.9061 78.3592 39.328 78.7654 39.4374C77.5936 40.1405 76.8748 40.8436 76.4686 42.1717C77.3904 42.4061 78.3748 42.3124 78.9217 42.0467C79.2967 41.5624 79.8904 41.1249 80.4686 40.9686C82.0779 41.8905 82.9842 43.3436 83.1092 44.3592C81.9529 44.4686 80.8279 44.8905 80.2498 45.2499C79.1873 44.9217 78.3592 44.8124 77.6561 44.8124C76.3748 44.8124 75.3279 45.2186 74.3748 45.2186C73.4061 45.2186 72.7498 44.6717 72.5936 44.1249C72.8748 43.2499 73.1248 41.8592 73.1248 40.7186C73.1248 37.578 70.2967 34.9999 65.6873 34.6717C66.7654 35.1874 68.0467 36.078 68.4842 36.7655C67.5467 37.1874 66.5311 38.328 66.5311 39.3124C66.5311 40.1249 67.1873 40.8905 67.8748 41.1249C68.2498 40.8436 68.8436 40.5624 69.2811 40.4374C70.4529 41.4842 71.1561 43.078 71.1717 44.2811C70.3279 44.1874 68.8904 44.3905 68.0623 44.5624C67.2967 43.9217 66.6561 43.5467 66.0779 43.2967C64.9373 42.828 64.0311 42.9842 63.1404 42.7342C62.4061 42.5467 61.8748 42.0467 61.8123 41.6405C62.7342 40.7967 63.6717 39.203 63.6717 37.5936C63.6717 35.3436 62.3279 34.0311 61.1248 34.0311C60.1717 34.0311 59.4217 34.828 59.4217 35.9686C59.4217 37.2499 60.4842 38.5311 62.0936 38.6561C61.1561 39.6249 60.0311 40.3124 58.6717 40.3124C57.8436 40.3124 57.2186 40.0624 56.8748 40.0624C56.2654 40.0624 55.5779 40.328 55.2811 40.328C55.1404 40.328 55.0623 40.2499 55.0623 40.1092C55.0623 39.6249 55.9529 38.4999 56.4842 37.9999C55.5779 37.9217 54.9529 38.0624 54.3436 38.5467C53.4842 39.2186 53.1092 40.2655 52.0467 40.2655C51.0467 40.2655 50.6248 39.0624 49.8279 38.328C49.2654 37.7967 48.8592 37.7967 47.9686 36.9842C46.5623 35.6874 46.2342 34.3124 45.9842 33.9999C45.5311 33.4842 43.6248 32.6405 42.9529 31.3592ZM51.7186 33.4686C51.7186 32.7186 51.2342 32.1405 50.6248 31.9374C50.6873 31.2186 51.0154 30.5311 51.4061 30.2186C51.0623 30.0624 50.4373 30.1249 50.0936 30.5311C49.7811 30.8905 49.6561 31.4842 49.5623 32.1092C49.4842 32.5936 49.4217 33.0936 49.3123 33.5467C49.1248 34.3124 48.7811 34.703 48.4998 34.7655C48.7498 34.9217 49.1561 35.0311 49.4842 34.8905C50.0311 34.6405 50.2967 34.0624 50.3904 33.3124C50.6404 33.4374 50.8748 33.7342 50.8748 34.0624C50.8748 34.5155 50.5154 34.8592 50.0154 34.9999C50.9686 35.0624 51.7186 34.3592 51.7186 33.4686ZM44.0779 23.4061C46.4842 22.6874 48.1873 23.1249 48.1873 24.3592C48.1873 25.1249 47.6092 25.5311 47.6092 26.3124C47.6092 27.0155 48.2186 27.3592 48.9061 27.3592C50.5154 27.3592 51.8592 26.0155 51.8592 24.2967C51.8592 22.6561 50.6248 21.2967 48.4061 21.2967C46.7029 21.2811 44.9217 22.2342 44.0779 23.4061Z" fill="white"/>
<path d="M101.813 81.3281C100.922 81.3281 100.266 82.0625 99.7033 82.7656C98.0158 84.875 96.2971 86.0312 93.6096 86.0312C89.4689 86.0312 85.4533 82.5313 85.4533 78.2188C85.4533 75.5938 86.6252 72.6875 86.6252 70.5156C86.6252 68.8437 85.5783 67.9531 84.4377 67.9531C83.9064 67.9531 83.5314 68.25 83.5314 68.4688C83.5314 68.8438 84.7814 68.3594 84.7814 70.125C84.7814 72.1875 83.3908 75.2813 83.3908 78.5156C83.3908 83.7188 88.2814 87.9062 93.3439 87.9062C96.3752 87.9062 98.6408 86.4688 100.297 84.25C100.531 84.7656 101.078 85.1563 101.781 85.1563C102.797 85.1563 103.563 84.3125 103.563 83.2187C103.547 82.2656 102.797 81.3281 101.813 81.3281ZM87.4846 73.0156C88.1564 73.6562 90.6252 75.4844 93.4377 77.3125C96.2502 79.1406 98.9221 80.6563 99.7971 81C99.9846 81.0781 100.11 81.0938 100.125 81.0469C100.156 81 100.141 80.9531 99.9064 80.8125C97.9377 79.5938 95.7971 78.2188 93.7189 76.875C91.6564 75.5313 89.5314 74.125 87.6096 72.8281C87.3752 72.6719 87.3283 72.6719 87.2971 72.7188C87.2814 72.7656 87.3439 72.875 87.4846 73.0156ZM87.5939 76.8125C87.5783 76.8906 87.5783 76.9844 87.5627 77.0781C87.5471 77.1719 87.5471 77.25 87.5314 77.3438C87.5158 77.8906 88.3596 78.375 88.8283 77.5938C88.7971 77.7969 88.7814 77.9844 88.7502 78.1875C88.7346 78.7188 89.5783 79.2188 90.0471 78.4219C90.0158 78.625 90.0002 78.8125 89.9689 79.0156C89.9533 79.5469 90.8127 80.0313 91.2814 79.25C91.2658 79.4531 91.2346 79.6406 91.2189 79.8438C91.2033 80.375 92.0627 80.8594 92.5314 80.0625C92.5158 80.2656 92.4846 80.4531 92.4689 80.6563C92.4064 81.1875 93.3127 81.6562 93.7814 80.875L93.7189 81.4688C93.7033 82 94.5627 82.4688 95.0471 81.6875L94.9846 82.2812C94.9689 82.875 95.9377 83.2187 96.3596 82.5156C96.3439 82.6719 96.3283 82.7656 96.3127 82.9219C96.2189 83.75 97.1408 84.2188 97.7658 83.75C98.1721 83.4375 98.7189 82.9062 99.0627 82.4688C99.5939 81.7969 98.6564 81.2188 98.1408 81.6406C98.0002 81.75 97.8752 81.8594 97.7346 81.9687C97.7502 81.7344 97.7502 81.5 97.7658 81.2656C97.7814 80.7812 96.9221 80.2344 96.4689 81.3281C96.4846 81.0469 96.4846 80.7656 96.5002 80.4844C96.5158 80 95.6564 79.4531 95.2033 80.5469C95.2189 80.2656 95.2346 79.9844 95.2346 79.7031C95.2502 79.2031 94.3908 78.6719 93.9533 79.75C93.9689 79.4688 93.9846 79.1875 93.9846 78.8906C94.0002 78.4063 93.1564 77.8438 92.7033 78.9375C92.7189 78.6563 92.7346 78.375 92.7346 78.0781C92.7502 77.5781 91.9064 77.0313 91.4533 78.1094C91.4689 77.8281 91.4846 77.5313 91.5002 77.25C91.5158 76.75 90.6721 76.1875 90.2189 77.2813C90.2346 77 90.2502 76.7031 90.2658 76.4219C90.2814 75.9219 89.4377 75.3594 89.0002 76.4531C89.0158 76.1719 89.0314 75.875 89.0471 75.5938C89.0627 75.1094 88.2971 74.6719 87.9377 75.3125C87.9064 75.3594 87.8596 75.4375 87.8283 75.5313C87.8439 75.2813 87.8596 75.0156 87.8752 74.7656C87.8908 74.1406 86.8596 73.875 86.6408 74.5C86.5002 74.9062 86.3752 75.9375 86.3596 76.5312C86.3596 77.0781 87.2033 77.4844 87.5939 76.8125ZM65.2189 70.125C65.2189 68.3437 66.4689 68.8438 66.4689 68.4688C66.4689 68.25 66.0939 67.9531 65.5627 67.9531C64.4064 67.9531 63.3752 68.8437 63.3752 70.5156C63.3752 72.7031 64.5471 75.5938 64.5471 78.2188C64.5471 82.5313 60.5314 86.0469 56.3908 86.0469C53.7033 86.0469 51.9846 84.8906 50.2971 82.7812C49.7346 82.0781 49.0783 81.3437 48.1877 81.3437C47.2033 81.3437 46.4533 82.2813 46.4533 83.2344C46.4533 84.3281 47.2189 85.1719 48.2346 85.1719C48.9221 85.1719 49.4689 84.7812 49.7189 84.2656C51.3752 86.4688 53.6408 87.9219 56.6721 87.9219C61.7346 87.9219 66.6252 83.7344 66.6252 78.5313C66.6096 75.2813 65.2189 72.2031 65.2189 70.125ZM50.2033 81.0156C51.0627 80.6563 53.7346 79.1563 56.5627 77.3281C59.3752 75.5 61.8439 73.6719 62.5158 73.0156C62.6721 72.875 62.7189 72.7656 62.6877 72.7344C62.6564 72.6875 62.6096 72.6875 62.3752 72.8438C60.4533 74.1406 58.3283 75.5469 56.2658 76.8906C54.2033 78.2344 52.0471 79.5938 50.0783 80.8281C49.8439 80.9688 49.8283 81.0156 49.8596 81.0625C49.8908 81.0938 50.0158 81.0938 50.2033 81.0156ZM62.1408 74.7344C62.1564 74.9844 62.1721 75.25 62.1877 75.5L62.0783 75.2812C61.7033 74.6406 60.9377 75.0938 60.9689 75.5625C60.9846 75.8438 61.0002 76.1406 61.0158 76.4219C60.5627 75.3281 59.7346 75.9063 59.7502 76.3906C59.7658 76.6719 59.7814 76.9688 59.7971 77.25C59.3439 76.1563 58.5002 76.7188 58.5158 77.2188C58.5314 77.5 58.5471 77.7969 58.5627 78.0781C58.1096 76.9844 57.2658 77.5469 57.2814 78.0469C57.2971 78.3281 57.3127 78.6094 57.3127 78.9063C56.8596 77.8125 56.0158 78.375 56.0314 78.8594C56.0471 79.1406 56.0627 79.4219 56.0627 79.7188C55.6252 78.6406 54.7658 79.1719 54.7814 79.6719C54.7971 79.9531 54.7971 80.2344 54.8127 80.5156C54.3596 79.4219 53.5158 79.9688 53.5158 80.4688C53.5314 80.75 53.5314 81.0313 53.5471 81.3125C53.0939 80.2344 52.2502 80.7656 52.2502 81.25C52.2658 81.4844 52.2658 81.7188 52.2814 81.9531C52.1408 81.8438 52.0158 81.7344 51.8752 81.625C51.3596 81.2031 50.4221 81.7813 50.9533 82.4531C51.2971 82.8906 51.8439 83.4219 52.2502 83.7344C52.8596 84.2031 53.7971 83.7344 53.7033 82.9062C53.6877 82.75 53.6721 82.6563 53.6564 82.5C54.0783 83.2031 55.0471 82.8594 55.0314 82.2656C55.0158 82.0781 54.9846 81.875 54.9689 81.6875C55.4533 82.4844 56.3127 82.0156 56.2971 81.4688L56.2346 80.875C56.7033 81.6562 57.6096 81.1875 57.5471 80.6563C57.5314 80.4531 57.5002 80.2656 57.4846 80.0625C57.9533 80.8594 58.8127 80.375 58.7971 79.8438L58.7189 79.25C59.1877 80.0469 60.0471 79.5625 60.0314 79.0156C60.0002 78.8125 59.9846 78.625 59.9533 78.4219C60.4377 79.2188 61.2814 78.7188 61.2502 78.1875C61.2189 77.9844 61.2033 77.7969 61.1721 77.5938C61.6408 78.3906 62.4846 77.8906 62.4689 77.3438L62.4377 77.0781C62.4221 76.9844 62.4221 76.9063 62.4064 76.8125C62.7971 77.4688 63.6564 77.0625 63.6408 76.5C63.6408 75.9063 63.5002 74.8594 63.3596 74.4688C63.1564 73.8438 62.1096 74.1094 62.1408 74.7344Z" fill="#FFB81C"/>
<path d="M75 64.2033C61.2969 53.9845 45.3594 40.6408 35.6094 29.0314C35.7656 30.8595 37.1406 34.6877 40.3281 38.1877C48.7813 47.422 61.0938 57.5627 72.3438 66.1564C70.2188 67.7033 68.1719 69.172 66.2344 70.5314C66.1562 70.9689 66.2344 71.9845 66.3281 72.4377C66.4844 72.8752 66.9844 73.5783 67.3281 73.8595C69.75 72.0939 72.3281 70.1877 75 68.172C77.6562 70.1877 80.25 72.0939 82.6719 73.8595C83.0312 73.5783 83.5156 72.8752 83.6719 72.4377C83.75 71.9845 83.8281 70.9845 83.7656 70.5314C81.8281 69.172 79.7812 67.7033 77.6562 66.1564C88.9062 57.5627 101.219 47.422 109.672 38.1877C112.875 34.6877 114.25 30.8595 114.391 29.0314C104.641 40.6564 88.7031 53.9845 75 64.2033Z" fill="white"/>
<path d="M50.0154 35.0158C50.4998 34.8752 50.8592 34.5314 50.8592 34.0783C50.8592 33.7502 50.6248 33.4533 50.3904 33.3283C50.2967 34.0783 50.0311 34.6564 49.4842 34.9064C49.5779 34.9377 49.7811 35.0002 50.0154 35.0158Z" fill="#C8102E"/>
<path d="M110.641 88.7656C109.328 88.7656 108.266 89.8281 108.266 91.1406C108.266 92.4531 109.328 93.5156 110.641 93.5156C111.953 93.5156 113.016 92.4531 113.016 91.1406C113 89.8281 111.937 88.7656 110.641 88.7656ZM110.641 93C109.609 93 108.781 92.1719 108.781 91.1406C108.781 90.1094 109.609 89.2813 110.641 89.2813C111.672 89.2813 112.5 90.1094 112.5 91.1406C112.5 92.1719 111.672 93 110.641 93ZM111.609 90.5938C111.609 90.1406 111.25 89.7812 110.812 89.7812H109.672V92.5H110.187V91.4063H110.547L111.062 92.5H111.625L111.094 91.3594C111.391 91.2344 111.609 90.9375 111.609 90.5938ZM110.797 90.8906H110.156V90.2969H110.797C110.953 90.2969 111.094 90.4219 111.094 90.5938C111.094 90.75 110.969 90.8906 110.797 90.8906Z" fill="#003087"/>
</svg>
