<svg width="150" height="100" viewBox="0 0 150 100" fill="none" xmlns="http://www.w3.org/2000/svg">
<g clip-path="url(#clip0_80_420)">
<path d="M77.1394 80.4387C75.8453 80.4387 74.795 81.4876 74.795 82.7825C74.795 84.0759 75.8453 85.1264 77.1394 85.1264C78.4334 85.1264 79.4825 84.0759 79.4825 82.7826C79.4825 81.4876 78.4334 80.4387 77.1394 80.4387ZM77.1394 84.6236C76.8975 84.6238 76.658 84.5763 76.4346 84.4839C76.2111 84.3914 76.0081 84.2558 75.8371 84.0848C75.6661 83.9138 75.5305 83.7108 75.4381 83.4873C75.3456 83.2638 75.2982 83.0243 75.2984 82.7825C75.2984 81.7653 76.1209 80.9428 77.1394 80.9428C78.1565 80.9428 78.98 81.7653 78.98 82.7825C78.98 83.8001 78.1565 84.6236 77.1394 84.6236ZM78.1025 82.2392C78.1025 82.1348 78.0819 82.0315 78.0419 81.9351C78.0019 81.8387 77.9433 81.7512 77.8694 81.6775C77.7202 81.5285 77.518 81.445 77.3072 81.4451H76.1778V84.1206H76.6798V83.034H77.04L77.5473 84.1206H78.1025L77.5728 82.9876C77.7275 82.9328 77.8615 82.8314 77.9564 82.6974C78.0512 82.5634 78.1022 82.4034 78.1025 82.2392ZM77.3072 82.5317H76.6798V81.9462H77.3072C77.3849 81.9463 77.4594 81.9773 77.5144 82.0322C77.5693 82.0871 77.6003 82.1616 77.6005 82.2393C77.6004 82.2778 77.5928 82.3159 77.578 82.3514C77.5632 82.3869 77.5416 82.4191 77.5144 82.4463C77.4871 82.4734 77.4548 82.4949 77.4193 82.5096C77.3837 82.5242 77.3456 82.5318 77.3072 82.5317Z" fill="#C8102E"/>
<path d="M131.343 30.5109C137.021 25.6589 142.524 17.8348 142.524 8.87532C142.524 7.57844 140.942 7.2136 140.3 8.09532C134.45 16.0792 128.932 19.1125 125.6 20.2672C131.142 16.0716 136.577 9.22094 137.967 1.45188C138.12 0.0343812 136.578 -0.379369 135.865 0.362506C129.08 7.14688 119.738 14.3869 94.633 14.3869C88.5667 14.3869 81.632 14.2109 77.1478 14.2109C56.765 14.2109 49.2691 26.8177 47.5792 30.3175C45.9011 30.075 44.202 29.9255 42.513 29.9255C23.1942 29.9255 7.47687 45.6428 7.47687 64.9633C7.47656 84.282 23.1937 100 42.5128 100C56.7312 100 69.3006 91.6038 74.7919 78.5574C75.1783 78.5969 75.5883 78.6628 75.9341 78.6628C80.3737 78.6628 81.3048 77.3644 81.3048 76.2717C81.3048 75.6858 80.7244 74.9783 80.437 74.5661C86.95 74.5309 88.8602 74.2258 91.6789 73.2519C92.1373 73.1089 92.4066 72.683 92.4066 72.23C92.4066 71.2691 90.4361 69.6784 89.0091 68.4422C98.1184 68.2894 104.826 66.6624 104.826 64.5319C104.826 64.1158 104.786 63.5913 102.369 61.6872C107.508 60.2894 116.538 56.8238 116.538 54.5673C116.538 53.6928 115.783 53.1569 114.901 52.5424C122.901 49.528 129.628 44.2164 129.628 42.3119C129.628 40.7766 127.366 40.6463 126.245 40.5595C130.231 38.0063 135.782 33.6545 135.782 31.7752C135.782 29.8288 132.732 30.5955 131.343 30.5109Z" fill="#C8102E"/>
<path d="M129.005 31.0089C135.38 26.2317 141.44 17.9811 141.44 8.87534C141.44 8.68393 141.251 8.65425 141.172 8.73409C131.317 22.1883 122.356 22.056 122.356 22.056C121.964 22.056 121.871 21.5063 122.183 21.2896C128.545 17.5474 135.369 9.82784 136.902 1.26065C136.923 1.14581 136.751 1.00675 136.631 1.12659C129.393 8.36456 119.447 15.4691 94.6325 15.4691C86.6858 15.4691 82.5388 15.2933 77.1475 15.2933C55.63 15.2933 49.0131 29.5952 48.2299 31.4883C46.341 31.1682 44.4285 31.0071 42.5127 31.0067C23.76 31.0067 8.55768 46.2085 8.55768 64.9633C8.55768 83.7153 23.76 98.9183 42.5125 98.9183C56.8719 98.9183 69.1488 90.0049 74.1133 77.4107C74.7483 77.5189 75.3611 77.5805 75.9328 77.5805C79.3924 77.5805 80.223 76.8083 80.223 76.2718C80.223 75.9078 78.0105 73.4899 79.1089 73.4899C86.7817 73.4899 88.5086 73.2035 91.3257 72.23C89.9741 70.1149 85.0789 67.3769 87.5996 67.3769C99.76 67.3769 103.745 65.0292 103.745 64.5319C103.745 63.9508 99.8677 61.1585 99.8677 61.1585C105.469 60.235 115.456 55.7678 115.456 54.5674C115.456 53.8725 112.608 52.7063 113.064 52.0477C121.945 49.0938 128.546 43.3546 128.546 42.3119C128.546 41.4753 123.34 41.5732 123.34 41.5732V41.02C127.842 38.6796 134.699 33.0202 134.699 31.7752C134.699 30.9821 128.264 32.3111 129.005 31.0089Z" fill="white"/>
<path d="M50.849 58.5481C49.7501 57.12 48.2936 55.9822 46.6115 55.2703L46.3384 55.5381L46.9025 59.4172C47.0786 59.5564 47.2477 59.7043 47.4092 59.8602L50.2509 59.8838C50.4568 59.4416 50.6562 58.9963 50.849 58.5481ZM38.5534 55.5958L41.6959 57.9374C41.919 57.9121 42.143 57.897 42.3675 57.8924L45.1628 55.1417L45.1061 54.7652C44.2584 54.5497 43.3872 54.4408 42.5126 54.441C41.1564 54.4405 39.8129 54.7032 38.5567 55.2144L38.5534 55.5958ZM45.3604 56.5006L43.822 58.0105C44.4642 58.1306 45.0863 58.34 45.6704 58.6327L45.3604 56.5006ZM46.5015 70.8047C45.9624 71.1725 45.3752 71.4644 44.7564 71.672L46.4845 72.9589L46.5017 70.8047H46.5015ZM32.4684 80.5042L37.4722 75.5814C35.5159 74.653 33.8586 73.1963 32.68 71.3983L28.4839 77.0275C29.6394 78.3706 30.9811 79.5414 32.4684 80.5042ZM48.3547 60.9733C48.6303 61.3756 48.8631 61.8055 49.0493 62.2561C49.2786 61.8363 49.5005 61.4124 49.715 60.9849L48.3547 60.9733ZM38.9497 76.1652C38.8273 76.1259 38.7056 76.0845 38.5847 76.041L33.4458 81.0952C35.4682 82.2343 37.688 82.9801 39.9879 83.2933L38.9497 76.1652ZM48.3167 69.3141L48.0589 69.3525C47.9198 69.5283 47.7723 69.6973 47.6168 69.8588L47.5828 73.7791L47.889 74.006C48.835 73.4421 49.6869 72.7338 50.414 71.9067C49.3709 70.9592 48.6239 70.0611 48.3167 69.3141ZM38.5242 59.1214C39.0625 58.7521 39.65 58.4601 40.2695 58.2541L38.5418 56.965L38.5242 59.1213V59.1214ZM32.0722 70.3622C32.0132 70.2482 31.9556 70.1335 31.8995 70.0181L24.6923 69.9572C25.3261 72.2239 26.3809 74.3133 27.765 76.1377L32.0722 70.3622ZM46.4725 74.3308L43.3317 71.9881C43.1087 72.0133 42.8848 72.028 42.6604 72.0321L39.8643 74.7816L39.9183 75.1597C40.7662 75.3753 41.6377 75.4841 42.5126 75.4835C43.8689 75.4843 45.2124 75.222 46.4687 74.7113L46.4725 74.3308ZM39.667 73.4239L41.2034 71.913C40.5618 71.7928 39.94 71.5841 39.3559 71.2927L39.667 73.4239ZM47.5686 75.5764L47.5086 82.7827C49.7737 82.1494 51.8626 81.0952 53.6879 79.7099L47.9111 75.4033C47.7972 75.462 47.6845 75.5205 47.5686 75.5764ZM36.6703 68.9517C36.3024 68.4126 36.0113 67.8249 35.8056 67.2055L34.5161 68.9331L36.6703 68.9519V68.9517ZM37.6162 70.0653L33.6975 70.0325L33.47 70.338C34.6111 72.2536 36.3425 73.7789 38.4153 74.6546L38.6875 74.3858L38.124 70.5085C37.9482 70.3685 37.7787 70.2206 37.6162 70.0653ZM37.4106 60.0663L37.4425 56.1471L37.1379 55.9185C35.2212 57.0602 33.6975 58.7916 32.8197 60.8655L33.089 61.1392L36.9676 60.5731C37.1073 60.3974 37.2551 60.2282 37.4106 60.0663ZM34.0509 62.1155L35.5615 63.653C35.6818 63.011 35.8912 62.3889 36.1837 61.8049L34.0509 62.1155ZM32.3147 62.3688C32.101 63.2171 31.9927 64.0885 31.9925 64.9633C31.9915 66.3194 32.254 67.6628 32.7653 68.9188L33.1456 68.9221L35.4884 65.7802C35.4615 65.5574 35.4468 65.3333 35.4443 65.1089L32.6933 62.315L32.3147 62.3689V62.3688ZM40.1111 76.4697L41.1225 83.4142C42.8895 83.5474 44.6665 83.4267 46.3993 83.0558L46.4583 76.0366C45.1917 76.4875 43.8571 76.7177 42.5126 76.7171C41.6898 76.7171 40.8861 76.6324 40.1111 76.4697ZM52.7948 51.0044C52.7948 50.5256 52.7843 50.0458 52.7684 49.5627C52.6981 49.5147 52.6283 49.467 52.5579 49.4213L47.5537 54.3431C49.0138 55.038 50.3149 56.0264 51.3761 57.2464C52.149 55.2249 52.7948 52.9513 52.7948 51.0042V51.0044ZM37.1154 54.5206C37.2287 54.4624 37.342 54.4035 37.4573 54.3491L37.5178 47.1424C35.2526 47.7752 33.1633 48.8294 31.3373 50.215L37.1154 54.5206ZM44.9153 53.456L43.9028 46.5102C43.4437 46.4778 42.9809 46.4575 42.5126 46.4575C41.1798 46.4575 39.8786 46.601 38.6253 46.8708L38.5672 53.8885C39.8337 53.4377 41.1683 53.2077 42.5126 53.2086C43.3365 53.2086 44.1397 53.2944 44.9153 53.456ZM57.0729 76.3778C54.937 75.273 52.924 73.9731 51.3531 72.7071C50.6486 73.5083 49.8399 74.2116 48.9487 74.7981L54.5764 78.9921C55.4909 78.2055 56.3259 77.327 57.0729 76.3778ZM51.5823 48.831C49.5596 47.6916 47.3397 46.9453 45.0395 46.6313L46.0773 53.7605C46.2009 53.8 46.3225 53.8413 46.4429 53.8836L51.5823 48.831ZM24.009 64.9633C24.009 66.2969 24.1509 67.5967 24.4201 68.8495L31.4379 68.9078C30.9878 67.6415 30.7582 66.3073 30.759 64.9633C30.759 64.1389 30.8436 63.3367 31.0047 62.5591L24.0612 63.5727C24.0262 64.0353 24.0087 64.4992 24.009 64.9633ZM24.1817 62.436L31.3103 61.3977C31.3493 61.2739 31.3922 61.1552 31.4351 61.0327L26.3814 55.8942C25.241 57.916 24.4945 60.1359 24.1817 62.436ZM26.9723 54.9186L31.8936 59.9217C32.8225 57.9711 34.2699 56.3135 36.0776 55.1302L30.4495 50.9335C29.1057 52.0886 27.9347 53.4307 26.9723 54.9186ZM42.5122 68.7783C44.6193 68.7783 46.3275 67.07 46.3275 64.963C46.3275 62.8558 44.6193 61.1477 42.5122 61.1477C40.405 61.1477 38.6968 62.8558 38.6968 64.963C38.6968 67.07 40.405 68.7783 42.5122 68.7783Z" fill="#C8102E"/>
<path d="M42.5125 42.0711C29.87 42.0711 19.6219 52.3203 19.6219 64.9633C19.6219 77.6058 29.87 87.8539 42.5125 87.8539C50.2305 87.8539 57.0552 84.0347 61.2031 78.183C60.3335 77.8763 59.45 77.5145 58.5745 77.1116C54.8967 81.9653 49.0719 85.1017 42.5125 85.1017C31.3899 85.1017 22.3725 76.0849 22.3725 64.9633C22.3725 53.8395 31.3899 44.8227 42.5125 44.8227C46.2283 44.8227 49.71 45.8314 52.698 47.587C52.6705 46.5894 52.6655 45.562 52.7442 44.4814C49.6655 42.9395 46.1903 42.0711 42.5125 42.0711Z" fill="#C8102E"/>
<path d="M67.9547 79.0702C66.4763 79.4241 64.5688 79.2005 62.5203 78.6078C58.1602 84.9895 50.8253 89.1797 42.5122 89.1797C29.1397 89.1797 18.2963 78.338 18.2963 64.9633C18.2963 64.5341 18.3084 64.1091 18.3288 63.6864C17.58 64.8227 17.7959 66.6975 16.4681 66.6975C15.415 66.6975 15.9988 65.2628 15.228 65.2628C14.7483 65.2628 14.6811 65.921 14.0847 65.921C14.0148 65.921 13.9528 65.8961 13.9077 65.8961C13.7795 65.8961 13.7225 66.1742 13.4795 66.1742C13.1695 66.1742 12.9519 65.8081 12.7056 65.8081C12.428 65.8081 12.3395 66.3381 11.9713 66.3381C11.5936 66.3381 11.228 65.706 11.0806 65.4169C11.3238 82.5716 25.303 96.4008 42.5127 96.4008C55.6834 96.4008 66.9605 88.3019 71.6403 76.8127C68.1142 75.7463 64.7447 73.9472 64.7447 73.9472C64.9597 76.048 67.9547 79.0702 67.9547 79.0702ZM14.1958 52.9431C14.9219 53.5433 14.3431 54.5931 14.8642 55.3155C18.852 43.8861 29.7245 35.685 42.5127 35.685C46.6919 35.685 50.6659 36.5628 54.2625 38.1403C54.5393 37.4745 54.8451 36.8211 55.1788 36.1819C51.303 34.4736 47.0189 33.5231 42.5127 33.5231C29.303 33.5231 17.9995 41.672 13.3455 53.2147C13.6044 53.3844 13.8895 52.6902 14.1958 52.9431ZM80.9019 20.6328H98.1994C120.296 20.6328 129.971 12.7328 133.782 5.73002C134.002 5.30892 133.731 5.22064 133.311 5.59377C128.501 9.90971 121.323 17.443 92.0156 17.443H79.648C60.1934 17.443 52.8673 26.2152 50.9567 32.066C51.9247 32.3146 52.8814 32.6055 53.8239 32.9378C57.2823 26.7111 63.8739 20.6328 80.9019 20.6328Z" fill="#C8102E"/>
<path d="M80.4964 25.0933C63.1866 25.0933 53.2161 36.9817 54.3572 48.3406C55.2075 56.8039 50.4716 63.6797 50.4716 63.6797C50.4716 63.6797 57.0775 60.6884 57.0775 48.637C57.0775 37.2142 68.4409 28.9005 78.0178 28.9005C87.2787 28.9005 98.0242 28.9586 103.352 28.9586C131.607 28.9586 138.444 15.905 139.417 13.3578C139.589 12.9758 139.342 13.0531 139.249 13.2308C133.35 21.1862 125.089 25.7292 102.675 25.7292C88.2769 25.7292 83.7239 25.0933 80.4964 25.0933Z" fill="#C8102E"/>
<path d="M86.95 34.9847C82.276 34.9847 81.8066 36.2858 81.8066 36.2858C81.6588 36.4672 81.7341 36.8931 81.4066 37.0174C80.3389 37.4297 79.1572 36.5452 78.2382 37.7347C77.683 38.4531 76.3363 37.567 75.4628 38.0744C75.2666 38.1892 75.466 38.6869 75.6178 38.7527C76.0267 38.9324 76.7019 38.8792 76.9558 39.0902C77.2239 39.31 77.2003 39.6245 77.4494 39.8086C77.7577 40.0345 78.3366 40.1352 78.5944 40.4914C78.796 40.7656 78.8603 41.3109 79.1528 41.3269C86.1694 41.7253 93.3722 41.7242 100.03 39.1447C100.785 37.9572 93.4983 34.9847 86.95 34.9847ZM59.3711 50.4575C59.4635 51.1363 59.2864 52.1784 59.4272 52.1922C64.3111 52.7253 69.2686 51.8569 73.788 49.7825C75.0457 49.2488 68.88 46.0386 63.7505 46.0386C62.0838 46.0386 60.9488 46.7477 60.9488 46.7477C60.6628 46.912 60.4336 47.582 60.1011 48.0813C59.8533 48.4522 60.3277 49.0333 60.1286 49.2724C59.7603 49.7161 59.3058 49.988 59.3711 50.4574V50.4575ZM66.0502 38.5691C65.8139 38.6088 65.6363 38.9925 65.4611 39.2414C65.018 39.8653 63.6141 39.7274 63.6257 40.4375C63.6416 41.7325 62.1991 41.9694 61.97 42.9022C61.7908 43.6333 61.3978 44.1856 61.3439 44.9722C66.5258 45.0003 71.8564 44.6661 76.4502 42.0281C77.6511 41.4813 70.1233 37.9805 66.0502 38.5691ZM82.5481 34.1266C82.1711 32.6234 80.3472 32.3419 79.1039 31.6147C78.6108 31.3256 78.0321 31.4575 77.4625 31.702C76.2285 32.232 74.6416 31.3322 73.368 32.2474C73.0053 32.5106 72.8113 33.0005 72.3424 33.1219C71.7603 33.2731 71.1732 33.2972 70.5789 33.3725C70.3608 33.4028 69.9519 33.55 69.9788 33.7975C70.0975 34.8544 69.1141 35.0749 68.3341 35.3475C67.5713 35.6158 67.8422 36.6217 67.8185 37.3627C72.8667 37.4269 78.1188 36.7156 82.5481 34.1266ZM56.8113 59.0538C58.1091 59.7288 64.3858 58.8219 67.6582 56.7881C64.2967 53.9369 58.9172 52.9024 58.9172 52.9024C58.1713 54.9378 57.3996 56.9633 56.8113 59.0539V59.0538Z" fill="#C8102E"/>
<path d="M55.8701 60.2422C55.2572 60.5681 54.5542 61.4933 55.1105 61.8692C56.1064 62.5442 57.7589 64.0569 65.3811 64.0569C72.8033 64.0569 75.627 61.7632 77.0314 60.3389C77.0314 59.4199 70.5017 57.5389 69.6251 58.0496C69.3558 58.1832 69.3239 58.453 69.2876 58.5717C68.9947 58.6866 68.0876 58.7008 67.8722 58.8582C67.3659 59.2297 67.4665 59.836 67.3314 59.8717C66.1731 60.1597 64.7375 59.4303 63.6408 59.9299C63.3467 60.0658 63.372 60.8841 62.9823 60.9139C62.1881 60.9738 61.3141 60.5016 60.5576 60.743C60.4231 60.7875 60.014 60.8467 59.7453 61.0161C59.3297 60.8028 59.1087 60.7511 58.5656 60.6197C58.1641 60.5213 57.7758 60.7974 57.2839 60.7138C56.8233 60.6336 56.3059 60.0102 55.8701 60.2422ZM85.967 54.8835C87.3378 54.1699 88.9873 54.1022 89.9944 52.7408C83.8419 49.5274 76.6572 49.86 75.7798 50.3678C75.5633 50.4944 75.3111 50.9424 75.0361 51.1177C74.6139 51.3947 74.222 51.2616 73.9423 51.5414C73.7747 51.7091 73.9587 52.1521 73.8405 52.316C73.6861 52.5331 73.3453 52.5716 73.1326 52.6863C72.9166 52.8046 72.4603 52.6116 72.1206 52.755C71.782 52.8986 71.7683 53.2156 71.5469 53.3278C70.7217 53.7483 69.5245 53.2608 68.9562 53.2696C68.6631 53.2746 68.7391 53.7367 68.8336 53.8297C69.2014 54.1941 70.2655 54.3052 70.2248 54.845C70.2155 54.9555 69.9605 55.3321 69.7994 55.3528C70.3634 56.5572 75.6111 58.1541 82.5139 55.8646C83.6665 55.5177 84.8583 55.4596 85.967 54.8833V54.8835ZM93.8195 46.015C94.384 45.6369 95.1036 45.6325 95.4398 45.0981C96.1847 44.1313 88.9967 42.5335 86.0801 42.5335C83.1817 42.5335 77.8295 43.2607 76.9111 43.5833C76.5306 43.7416 76.5103 44.5177 76.0639 44.5727C75.2044 44.6783 74.353 44.7827 73.4883 44.8552C73.2041 44.8783 73.2755 45.3339 73.364 45.4038C73.9262 45.8578 74.1 46.1392 74.3369 46.8346C74.3606 46.9 74.9444 46.8424 75.0719 46.9511C75.6336 47.436 76.0348 48.1258 76.7384 48.2967C80.1425 49.1135 83.4328 49.3389 86.9173 48.5292C87.2905 48.4435 87.5637 48.14 87.8967 48.0994C89.1192 47.9411 90.3912 47.8674 91.3389 46.9649C92.0076 46.3267 93.0748 46.5169 93.8195 46.015ZM102.087 31.2985C102.287 31.1744 102.125 30.5274 101.957 30.5027C101.176 30.3839 100.331 30.0685 99.4865 30.8264C99.2008 31.0842 98.6687 30.5296 98.2736 30.7683C97.9536 30.9585 97.6381 31.4702 97.3408 31.6027C96.5311 31.9627 95.7455 31.1216 94.8517 31.2261C94.5895 31.2552 94.6533 31.8385 94.3928 31.8996C93.6239 32.0814 92.9522 31.2442 92.5184 31.5257C91.8544 31.9538 91.2965 32.4991 90.4928 32.1374C89.7211 31.7867 88.7022 31.0574 88.1744 31.5169C87.258 32.3172 86.1433 31.1575 85.3375 31.47C84.6547 31.7346 82.8187 32.1721 84.0711 32.8981C87.9617 35.2535 96.0858 34.7857 102.087 31.2986V31.2985ZM63.522 75.4647C63.3187 75.096 62.7926 75.2938 62.4305 75.0807C62.1676 74.9213 62.0419 74.3738 61.7845 74.1621C61.5856 73.9983 61.1056 74.3699 60.8589 74.2258C60.5089 74.0202 60.2417 73.5767 59.9684 73.2711C59.6645 72.9341 59.3853 72.5675 59.0862 72.23C58.8059 71.9128 58.5064 71.6227 58.1484 71.411C57.9561 71.2972 57.5823 71.543 57.3498 71.4825C56.9381 71.3725 56.6984 70.6569 56.3615 70.3578C56.1681 70.1863 55.8592 70.1627 55.6881 70C55.5128 69.8313 55.4755 69.5213 55.2912 69.3172C55.0478 69.05 54.6916 68.955 54.4283 68.7396C54.0716 68.4477 53.8045 67.7083 53.5297 67.3011C53.2553 66.8938 52.849 66.8486 52.5853 66.4919C52.2548 66.0446 52.0614 65.2932 51.6573 64.8403C51.2528 64.3828 50.2398 65.1128 49.9303 65.7291C49.4225 66.7371 49.4522 68.0174 50.2266 68.8814C54.0359 73.1369 58.9823 76.6664 64.6434 77.5982C64.2212 76.9891 63.7761 75.9271 63.522 75.4647ZM76.048 74.04C75.4714 73.8796 74.9658 73.5608 74.4375 73.3425C74.1115 73.2085 73.7976 73.7141 73.4464 73.5052C72.7358 73.081 72.1245 72.473 71.5589 72.0211C71.1105 71.6622 70.2111 70.7617 69.8245 70.9432C69.6723 71.0108 69.4536 71.8474 69.0864 71.5721C68.2009 70.9086 67.6259 70.195 66.7998 69.4713C66.4211 69.1419 66.0605 70.2308 65.5801 70C64.4753 69.463 64.0305 68.2657 63.1808 67.4172C62.189 66.4299 61.2409 65.286 59.8767 64.9242C59.6501 64.8649 59.775 65.1953 59.5626 65.3613C58.5206 66.1749 57.3734 64.7852 56.3614 64.3213C55.4331 63.8925 54.6162 63.2121 53.5719 63.1411C53.3503 63.1247 53.3603 63.4589 53.4444 63.5583C59.3941 70.5964 67.6495 75.8766 76.717 75.6638C76.9275 75.6589 77.3567 75.6825 77.0039 75.2455C76.7219 74.8992 76.4055 74.1396 76.048 74.04ZM84.4695 68.9133C84.2047 68.8742 83.7934 69.2321 83.5637 69.1886C82.8606 69.0567 82.3044 68.4252 81.4512 67.9746C81.0995 67.7892 80.9164 68.6208 80.6406 68.6033C79.2262 68.5225 77.1825 67.023 75.92 66.2666C75.6962 66.1314 74.3469 66.4007 74.1231 66.4458C73.3112 66.6091 72.2784 65.1877 71.6403 64.888C71.1565 64.6627 70.4831 64.4241 70.0242 64.7677C69.4014 65.231 68.6615 64.9825 67.9794 64.9733C67.715 64.9677 67.4814 65.5307 67.1533 65.6339C66.2231 65.9324 65.1936 65.2855 64.2806 65.7411C64.2542 65.7536 64.1295 65.9446 64.1365 66.0105C64.1992 66.5827 64.8386 66.6789 65.2601 66.9361C71.7984 71.0835 81.8955 72.4263 87.5214 71.168C87.6489 71.1285 87.45 70.6475 87.0706 70.3578C86.6783 70.0566 86.0998 69.9433 85.8558 69.7724C85.288 69.3744 84.9851 68.9908 84.4695 68.9133ZM97.6314 62.8778C96.9394 63.0828 96.4041 62.5755 95.8291 62.795C95.6972 62.8466 95.607 63.0642 95.497 63.0653C94.4131 63.0867 93.6908 61.9203 92.5872 62.0083C92.314 62.0297 92.3194 62.513 92.0869 62.5678C91.407 62.7272 90.8041 61.9044 90.1911 62.1996C89.7541 62.4133 89.4462 62.3974 89.0275 62.2744C88.4844 62.115 88.0809 61.6322 87.5565 61.5494C87.0931 61.4767 86.6375 61.9363 86.1147 61.7841C84.8142 61.4053 83.8056 60.1691 82.4094 60.4653C81.7201 60.611 81.1275 60.1394 80.6515 60.4247C80.1294 60.7341 79.9809 61.1107 79.4515 61.4252C79.0933 61.6428 78.2539 61.6153 77.8784 61.8428C77.5942 62.0171 77.5217 62.4557 77.1964 62.5903C76.5856 62.8427 75.8628 62.6635 75.2906 62.9872C75.2234 63.0247 75.1856 63.3441 75.4308 63.4127C80.762 65.2196 89.3908 67.2077 99.6976 64.533C100.015 64.4361 100.081 64.246 99.823 63.9475C99.2569 63.2928 98.4792 62.6257 97.6314 62.8778ZM109.966 53.8446C109.055 54.2683 108 53.7977 106.991 54.0375C106.727 54.1 106.929 54.4761 106.665 54.513C105.675 54.6532 104.649 54.4002 103.721 54.7625C102.995 55.0444 102.125 54.7241 101.326 54.7444C101.022 54.7525 101.015 55.16 100.968 55.4902C100.925 55.77 100.502 55.9377 100.378 55.9008C99.3883 55.6067 98.4401 55.5002 97.437 55.3528C94.9178 54.9808 92.4239 54.1799 90.0553 54.8872C89.2825 55.1192 88.258 55.3127 87.6659 55.9141C87.4384 56.1471 87.1959 56.6066 86.8931 56.7172C85.4436 57.2442 83.865 57.3422 82.4205 57.8566C81.9839 58.0105 81.1523 58.6228 81.4634 58.7032C81.4634 58.7032 85.9201 59.9969 90.7826 59.9969C100.141 59.9969 107.275 57.6944 112.494 54.8472C112.194 54.4691 110.656 53.5236 109.966 53.8446ZM120.235 43.5953C119.661 43.7844 118.878 43.2425 118.387 43.6047C117.654 44.145 116.794 44.0472 116.041 43.9697C115.682 43.9317 115.119 43.8053 114.802 44.0538C114.596 44.2153 114.891 44.4742 115.084 44.648C113.19 45.2999 111.1 44.6858 109.304 45.4152C109.169 45.4699 109.088 46.1292 108.756 46.1953C107.107 46.5285 105.564 45.881 103.929 46.1805C103.513 46.2574 103.698 47.1374 103.263 47.1583C101.795 47.2302 100.365 47.1067 98.898 47.0457C97.1533 46.973 95.5461 47.6058 93.8998 48.1103C93.41 48.2577 93.2633 49.036 92.7361 49.1157C91.313 49.3328 89.8647 49.0838 88.5669 49.7247C88.4794 49.7675 88.4734 50.2041 88.569 50.2556C90.1597 51.1544 91.9825 51.775 93.0697 53.2283C104.138 53.1119 116.049 51.665 125.265 44.1088C125.447 43.9614 124.355 43.7338 123.767 43.5975C123.195 43.4646 122.723 43.4646 122.028 43.2375C121.41 43.0336 120.84 43.3975 120.235 43.5953ZM131.728 33.1852C131.615 33.1175 129.94 32.8158 129.014 33.0335C128.815 33.0802 128.698 33.4033 128.513 33.4335C127.317 33.6253 126.474 34.1966 125.259 34.2339C125.005 34.2399 124.459 34.4208 124.132 34.5763C123.691 34.7891 123.087 34.2719 122.743 34.6577C122.521 34.9067 122.908 35.5047 122.505 35.6949C121.447 36.193 120.21 35.2992 119.174 35.9747C118.872 36.1699 119.492 36.8305 119.103 36.9536C117.614 37.4192 115.038 35.1067 114.063 37.5077C113.911 37.8849 113.445 37.7144 113.153 37.6386C112.871 37.5655 112.473 37.4352 112.305 37.5747C111.392 38.3174 110.856 38.6138 109.573 38.2536C109.248 38.1602 109.242 39.1255 108.612 38.9721C107.891 38.7985 107.197 38.2783 106.538 38.573C106.232 38.7099 106.458 39.5117 106.011 39.5553C104.217 39.7263 102.368 39.4678 100.715 40.2022C100.307 40.3842 100.269 41.1174 99.6983 41.2116C98.4404 41.4197 97.1858 41.273 96.0105 41.6544C95.8198 41.7155 95.8644 42.2756 96.1551 42.318C96.9087 42.43 97.765 42.313 98.3433 42.6577C99.053 43.0814 99.5026 44.2758 100.201 44.3039C114.415 44.5788 124.684 39.4849 131.728 33.61C132.006 33.3682 131.862 33.2677 131.728 33.1852ZM128.243 24.8471C128.03 24.9439 128.098 25.6475 127.691 25.8361C126.992 26.158 126.196 26.1486 125.448 26.3758C125.165 26.4636 125.181 26.8397 124.945 26.9871C124.547 27.2403 124.009 27.0299 123.719 27.2442C121.923 28.5602 119.789 27.9699 117.795 28.2996C117.826 29.8024 115.454 28.8846 114.481 29.5386C113.419 30.2503 113.56 30.0558 111.98 30.0706C111.489 30.0761 111.754 30.8006 111.359 30.8089C110.099 30.8314 108.471 30.4317 107.532 30.705C107.363 30.7539 107.308 31.5481 106.974 31.6378C106.288 31.8214 105.569 31.8957 104.912 32.1035C104.403 32.2644 105.068 33.2253 104.387 33.4413C103.23 33.8074 101.956 33.5402 100.789 34.2014C100.331 34.4632 99.6592 34.2163 99.0645 34.3256C98.5587 34.4163 98.3653 34.9475 98.7786 35.181C99.1525 35.3916 99.7769 35.3366 100.145 35.5185C101 35.94 101.709 36.5502 102.627 36.608C117.644 37.5319 137.067 26.858 140.127 13.9291C140.233 13.4088 139.995 13.5047 139.889 13.7947C136.631 21.5524 128.243 24.8471 128.243 24.8471Z" fill="#C8102E"/>
</g>
<defs>
<clipPath id="clip0_80_420">
<rect width="150" height="100" fill="white"/>
</clipPath>
</defs>
</svg>
