<svg width="24" height="24" viewBox="0 0 24 24" fill="none" xmlns="http://www.w3.org/2000/svg">
<mask id="mask0_45_415" style="mask-type:alpha" maskUnits="userSpaceOnUse" x="0" y="0" width="24" height="24">
<rect width="24" height="24" fill="#D9D9D9"/>
</mask>
<g mask="url(#mask0_45_415)">
<path d="M15.2 14.8L16.35 10.65L12.8 8.2L11.65 12.35L15.2 14.8ZM4 18.825L3.175 18.425C2.65833 18.2083 2.30833 17.8375 2.125 17.3125C1.94166 16.7875 1.96666 16.2667 2.2 15.75L4 11.85V18.825ZM8 21C7.45 21 6.97916 20.8 6.5875 20.4C6.19583 20 6 19.525 6 18.975V13L8.675 20.35C8.725 20.4667 8.76666 20.5792 8.8 20.6875C8.83333 20.7958 8.89166 20.9 8.975 21H8ZM13.15 20.875C12.6333 21.0583 12.1167 21.0333 11.6 20.8C11.0833 20.5667 10.7333 20.1917 10.55 19.675L6.125 7.45C5.94166 6.93333 5.96666 6.42083 6.2 5.9125C6.43333 5.40416 6.80833 5.05833 7.325 4.875L14.85 2.125C15.3667 1.94166 15.8792 1.96666 16.3875 2.2C16.8958 2.43333 17.2417 2.80833 17.425 3.325L21.875 15.55C22.0583 16.0667 22.0333 16.5792 21.8 17.0875C21.5667 17.5958 21.1917 17.9417 20.675 18.125L13.15 20.875Z" fill="#1C1B1F"/>
</g>
</svg>
